<svg version="1.2" xmlns="http://www.w3.org/2000/svg" viewBox="0 0 234 74" width="234" height="74">
	<title>car</title>
	<style>
		.s0 { fill: #999999 } 
		.s1 { fill: #ffffff } 
		.s2 { fill: #bfbfbf } 
	</style>
	<g id="Dossier 1">
		<path id="Calque 5" fill-rule="evenodd" class="s0" d="m98.6 0.1c2.8 0 7 0.2 9.2 0.5 2.2 0.2 4.8 0.5 5.7 0.6 0.9 0.1 2.2 0.3 2.8 0.4 0.7 0.1 3 0.6 5 1 2.1 0.4 5.2 1.1 6.9 1.6 1.7 0.4 4.7 1.3 6.7 1.9 1.9 0.6 5.4 1.9 7.7 2.8 2.3 0.9 5.9 2.4 8 3.4 2 1 5.3 2.6 7.1 3.7 1.9 1 5.1 2.9 11 6.8l4.1 0.3c2.2 0.2 5.5 0.5 7.4 0.7 1.9 0.3 4.8 0.6 6.5 0.8 1.7 0.3 3.8 0.6 4.7 0.7 0.9 0.2 2.3 0.4 3.1 0.6 0.9 0.1 2.2 0.3 3 0.5 0.8 0.1 1.9 0.3 2.5 0.4 0.5 0.1 1.4 0.3 2 0.4 0.6 0.1 1.8 0.4 2.7 0.6 0.9 0.2 3.3 0.7 5.3 1.2 2 0.5 4.8 1.3 6.3 1.8 1.5 0.4 4.2 1.3 6 1.9 1.8 0.6 4.5 1.6 6.1 2.3 1.5 0.7 3.2 1.5 3.6 1.8 0.8 0.5 0.8 0.7 0.9 2.3 0 1 0.3 4.3 0.5 7.3 0.2 3.1 0.4 6.7 0.4 8 0 1.4-0.2 3.2-0.5 4.1-0.2 0.9-0.7 2.1-1 2.8-0.3 0.7-1.1 1.6-1.7 2.2-0.5 0.5-1.7 1.2-2.5 1.6-1.5 0.6-1.6 0.6-6.1 0.5-2.5-0.1-4.7-0.3-4.7-0.4-0.1 0 0-0.6 0.3-1.2q0.1-0.3 0.3-0.7l-4.1-0.1c-0.4 1-0.9 2.1-1.4 2.8-0.6 0.9-1.8 2.4-2.7 3.2-1.1 1.1-2.4 1.9-3.9 2.6-1.2 0.6-2.7 1.2-3.4 1.4-0.7 0.1-1.9 0.3-2.7 0.4-0.8 0.1-2.4 0.1-3.4-0.1-1-0.2-2.6-0.6-3.4-0.8-0.8-0.3-2.1-1-2.9-1.5-0.8-0.4-2.3-1.6-3.3-2.6-1-1-2.2-2.5-2.6-3.4-0.4-0.7-0.9-2-1.3-3.1l-4.1-0.1c0.2 0.9 0.5 1.8 0.5 2 0 0.1-0.8 0.2-4.4 0.3-6.2 0.1-20.4 0.1-52.3 0.1-31.2 0-56.8 0-56.9-0.1-0.1-0.1 0-0.9 0.3-1.8q0.1-0.3 0.2-0.7l-4-0.2c-0.4 1.1-0.9 2.6-1.3 3.4-0.5 0.9-1.8 2.5-2.9 3.7-1.7 1.6-2.5 2.2-4.4 3.1-1.2 0.6-3.3 1.3-4.6 1.6-1.9 0.4-2.6 0.4-4.6 0.1-1.2-0.2-3.1-0.6-4-1-1-0.4-2.4-1.1-3.1-1.6-0.8-0.5-2.2-1.7-3.1-2.7-1.1-1.2-2.1-2.6-2.7-3.8-0.4-1-1-2.6-1.3-3.5q-0.1-0.4-0.2-1l-3.9-0.2c0.1 0.8 0.1 1.6 0 1.7-0.1 0-1.8 0-4.2-0.2-0.9 0-2-0.1-3.2-0.2-3.9-0.3-8.7-0.6-10.7-0.8-3.3-0.2-3.5-0.3-4.1-1-0.3-0.4-1-1.8-1.5-3.2-0.5-1.3-1.1-2.9-1.2-3.5-0.2-0.6-0.4-1.7-0.6-2.6-0.1-0.8-0.3-2.2-0.4-3.2-0.1-1-0.1-2.9 0-4.2 0.2-2.1 0.3-2.5 0.9-3 0.4-0.3 1.2-1 1.9-1.6 1-0.9 1.2-1.3 1.5-3.5l3-0.2c1.6-0.1 3.6-0.3 4.3-0.4 0.8-0.2 1.7-0.5 2.2-0.6 0.4-0.2 1.4-0.6 2.2-1 0.7-0.4 1.8-1 2.3-1.5q1-0.8 1-1.5c0-0.3-0.1-1-0.4-1.4-0.2-0.5-0.7-1.1-1.1-1.4-0.4-0.3-1.4-0.7-2.2-1-1.3-0.3-2.2-0.4-5.2-0.3-2 0.1-4.1 0.2-5.5 0.4l0.1-1.9c0-1.1 0.1-2.1 0.3-2.3q0.2-0.5 2.2-0.7c1.1-0.1 2.9-0.3 4.1-0.4 1.2-0.2 5.1-0.6 8.6-1 3.5-0.4 7-0.8 7.9-0.8 1.4-0.2 2.5-0.6 6.5-2.7 2.7-1.3 5.8-2.8 6.8-3.3 1-0.5 2.7-1.2 3.7-1.7 1-0.4 1.9-0.8 2-0.8 0.1 0 1.5-0.5 3.2-1.2 1.6-0.7 5.1-1.9 7.7-2.7 2.6-0.8 6.3-1.8 8.2-2.3 1.8-0.4 4.3-1 5.4-1.2 1.1-0.2 3.2-0.6 4.7-0.8 1.5-0.3 3.6-0.6 4.6-0.7 1.1-0.2 3.4-0.4 5.3-0.6 1.8-0.1 4.2-0.3 5.3-0.4 1 0 4.2 0 7 0.1zm-10 4.3c-1.4 0-3.8 0.2-5.4 0.3-1.7 0.2-3.9 0.5-4.9 0.6-1 0.2-3.4 0.6-5.3 1-1.8 0.4-4.9 1.1-6.7 1.7-1.9 0.6-4.7 1.6-6.3 2.2-1.5 0.7-3.8 1.8-5.1 2.4-1.3 0.7-3.3 2-4.5 2.8-1.2 0.9-2.5 2-3 2.4-0.5 0.5-0.9 1-0.9 1.2 0 0.2 0.3 0.4 0.6 0.5 0.3 0 4.5 0.2 9.3 0.3 4.7 0 14.3 0.2 21.2 0.4 6.9 0.1 14.3 0.3 16.4 0.4 2.3 0.1 3.9 0 4.2-0.1 0.4-0.3 0.3-0.6-0.1-2.8-0.3-1.4-0.6-3-0.7-3.6-0.2-0.6-0.5-2.4-0.8-4.1-0.3-1.6-0.6-3.4-0.8-4-0.1-0.6-0.3-1.3-0.5-1.5-0.2-0.2-1-0.3-2.3-0.2-1.1 0-3.1 0-4.4 0.1zm13.3 0c-0.8 0.1-1 0.2-1 0.6 0 0.3 0.6 2.5 1.4 4.8 0.7 2.4 1.8 5.7 2.4 7.4 0.6 1.7 1.2 3.3 1.4 3.4 0.2 0.3 2.5 0.5 7.5 0.7 4 0.1 9.9 0.4 13.1 0.5 3.3 0.1 8.8 0.4 12.2 0.5 3.4 0.2 8.5 0.4 11.2 0.5 4.3 0.2 4.9 0.2 4.9-0.2 0-0.2-0.7-1-1.7-1.8-0.9-0.7-2.6-2-3.7-2.8-1.1-0.8-3.5-2.3-5.3-3.4-1.7-1-4.7-2.6-6.6-3.4-1.9-0.8-5-2.1-7-2.8-2-0.6-5.1-1.6-6.9-2-1.8-0.4-4.3-0.9-5.4-1.1-1.2-0.2-2.9-0.4-3.8-0.6-0.9-0.1-3.9-0.2-6.7-0.3-2.7-0.1-5.4-0.1-6 0zm111.9 31.2c-0.3 0.1-0.4 0.4-0.3 0.6 0.1 0.2 1.5 1.2 3.1 2.3 1.6 1.1 4.1 2.5 5.4 3.2 1.3 0.6 3.2 1.4 4.2 1.7 1 0.4 2.2 0.6 2.8 0.5h1.1c0.2-5.5 0.1-6.3-0.2-6.6-0.2-0.1-1.2-0.5-2.2-0.8-1.1-0.2-3.2-0.6-4.9-0.8-1.6-0.2-4.2-0.4-5.8-0.4-1.6 0-3 0.1-3.2 0.3zm-178.6 27c0.5 1.1 1.5 2.4 2.5 3.3 1 1 2.3 1.9 3.5 2.4 1.3 0.6 2.4 0.9 3.9 1 1.2 0.1 2.7 0.1 3.6-0.1 0.8-0.2 2.2-0.7 3.1-1.1 0.9-0.5 2.2-1.4 3.1-2.4 1-0.9 1.9-2.3 2.5-3.4q0.2-0.5 0.4-0.9l-23.5-1.3c0.2 0.9 0.6 1.9 0.9 2.5zm154.6 3.2c0.7 0.8 2 1.7 2.8 2.1 0.8 0.4 2.1 0.9 3 1.1 0.8 0.2 2.2 0.4 3 0.4 0.8 0 2-0.1 2.7-0.3 0.7-0.1 1.9-0.6 2.7-1 0.8-0.4 2.2-1.4 3.1-2.3 0.9-0.9 1.7-1.8 2.2-2.8l-21.9-0.7c0.6 1.3 1.5 2.6 2.4 3.5z"/>
		<path id="Calque 5 copy" fill-rule="evenodd" class="s1" d="m98.6 0.1c2.8 0 7 0.2 9.2 0.5 2.2 0.2 4.8 0.5 5.7 0.6 0.9 0.1 2.2 0.3 2.8 0.4 0.7 0.1 3 0.6 5 1 2.1 0.4 5.2 1.1 6.9 1.6 1.7 0.4 4.7 1.3 6.7 1.9 1.9 0.6 5.4 1.9 7.7 2.8 2.3 0.9 5.9 2.4 8 3.4 2 1 5.3 2.6 7.1 3.7 1.9 1 5.1 2.9 11 6.8l4.1 0.3c2.2 0.2 5.5 0.5 7.4 0.7 1.9 0.3 4.8 0.6 6.5 0.8 1.7 0.3 3.8 0.6 4.7 0.7 0.9 0.2 2.3 0.4 3.1 0.6 0.9 0.1 2.2 0.3 3 0.5 0.8 0.1 1.9 0.3 2.5 0.4 0.5 0.1 1.4 0.3 2 0.4 0.6 0.1 1.8 0.4 2.7 0.6 0.9 0.2 3.3 0.7 5.3 1.2 2 0.5 4.8 1.3 6.3 1.8 1.5 0.4 4.2 1.3 6 1.9 1.8 0.6 4.5 1.6 6.1 2.3 1.5 0.7 3.2 1.5 3.6 1.8 0.8 0.5 0.8 0.7 0.9 2.3 0 1 0.3 4.3 0.5 7.3 0.2 3.1 0.4 6.7 0.4 8 0 1.4-0.2 3.2-0.5 4.1-0.2 0.9-0.7 2.1-1 2.8-0.3 0.7-1.1 1.6-1.7 2.2-0.5 0.5-1.7 1.2-2.5 1.6-1.5 0.6-1.6 0.6-6.1 0.5-2.5-0.1-4.7-0.3-4.7-0.4-0.1 0 0-0.6 0.3-1.2 0.3-0.6 0.7-1.9 0.9-3 0.2-1 0.4-2.8 0.4-4 0-1.1-0.2-2.8-0.4-3.8-0.2-1-0.6-2.4-0.8-3.1-0.3-0.8-0.8-1.9-1.2-2.6-0.4-0.7-1-1.7-1.4-2.3-0.4-0.6-1.6-1.9-2.7-3-1.3-1.1-2.9-2.3-4.2-3-1.2-0.6-3-1.4-4.1-1.7-1.5-0.6-2.4-0.7-5.5-0.7-2.3 0-4.1 0.2-4.9 0.4-0.6 0.2-2 0.7-2.9 1.1-1 0.4-2.5 1.2-3.4 1.7-0.9 0.6-2.3 1.7-3 2.3-0.7 0.7-1.8 2-2.4 2.9-0.7 0.9-1.5 2.2-1.9 3-0.3 0.7-0.9 2.2-1.3 3.4-0.5 1.6-0.6 2.6-0.6 5.4 0 2.3 0.2 3.8 0.5 5 0.2 0.9 0.5 1.8 0.5 2 0 0.4-6.4 0.4-56.7 0.4-31.2 0-56.8 0-56.9-0.1-0.1-0.1 0-0.9 0.3-1.8 0.4-1.2 0.5-2.5 0.5-5.5 0-3.4-0.1-4.2-0.6-5.8-0.4-1.1-1-2.6-1.4-3.4-0.4-0.8-1.5-2.4-2.3-3.4-0.8-1-2.2-2.5-3.1-3.2-0.8-0.6-2.3-1.6-3.3-2.2-1-0.5-2.7-1.2-3.8-1.5-1.7-0.6-2.6-0.7-5.7-0.7-3.2 0-3.9 0.1-5.9 0.8-1.3 0.4-3.2 1.2-4.2 1.8-1.1 0.6-2.6 1.7-3.4 2.4-0.8 0.7-2 2-2.7 3-0.7 1-1.6 2.2-1.9 2.8-0.3 0.6-0.8 2-1.2 3-0.4 1.1-0.8 3-1 4.3-0.2 1.9-0.2 2.9 0 4.4 0.2 1 0.2 2 0.1 2.1-0.1 0-1.8 0-4.2-0.2-0.9 0-2-0.1-3.2-0.2-3.9-0.3-8.7-0.6-10.7-0.8-3.3-0.2-3.5-0.3-4.1-1-0.3-0.4-1-1.8-1.5-3.2-0.5-1.3-1.1-2.9-1.2-3.5-0.2-0.6-0.4-1.7-0.6-2.6-0.1-0.8-0.3-2.2-0.4-3.2-0.1-1-0.1-2.9 0-4.2 0.2-2.1 0.3-2.5 0.9-3 0.4-0.3 1.2-1 1.9-1.6 1-0.9 1.2-1.3 1.5-3.5l0.6-9q0 0 0 0.1l0.1-1.9c0-1.1 0.1-2.1 0.3-2.3q0.2-0.5 2.2-0.7c1.1-0.1 2.9-0.3 4.1-0.4 1.2-0.2 5.1-0.6 8.6-1 3.5-0.4 7-0.8 7.9-0.8 1.4-0.2 2.5-0.6 6.5-2.7 2.7-1.3 5.8-2.8 6.8-3.3 1-0.5 2.7-1.2 3.7-1.7 1-0.4 1.9-0.8 2-0.8 0.1 0 1.5-0.5 3.2-1.2 1.6-0.7 5.1-1.9 7.7-2.7 2.6-0.8 6.3-1.8 8.2-2.3 1.8-0.4 4.3-1 5.4-1.2 1.1-0.2 3.2-0.6 4.7-0.8 1.5-0.3 3.6-0.6 4.6-0.7 1.1-0.2 3.4-0.4 5.3-0.6 1.8-0.1 4.2-0.3 5.3-0.4 1 0 4.2 0 7 0.1zm-10 4.3c-1.4 0-3.8 0.2-5.4 0.3-1.7 0.2-3.9 0.5-4.9 0.6-1 0.2-3.4 0.6-5.3 1-1.8 0.4-4.9 1.1-6.7 1.7-1.9 0.6-4.7 1.6-6.3 2.2-1.5 0.7-3.8 1.8-5.1 2.4-1.3 0.7-3.3 2-4.5 2.8-1.2 0.9-2.5 2-3 2.4-0.5 0.5-0.9 1-0.9 1.2 0 0.2 0.3 0.4 0.6 0.5 0.3 0 4.5 0.2 9.3 0.3 4.7 0 14.3 0.2 21.2 0.4 6.9 0.1 14.3 0.3 16.4 0.4 2.3 0.1 3.9 0 4.2-0.1 0.4-0.3 0.3-0.6-0.1-2.8-0.3-1.4-0.6-3-0.7-3.6-0.2-0.6-0.5-2.4-0.8-4.1-0.3-1.6-0.6-3.4-0.8-4-0.1-0.6-0.3-1.3-0.5-1.5-0.2-0.2-1-0.3-2.3-0.2-1.1 0-3.1 0-4.4 0.1zm13.3 0c-0.8 0.1-1 0.2-1 0.6 0 0.3 0.6 2.5 1.4 4.8 0.7 2.4 1.8 5.7 2.4 7.4 0.6 1.7 1.2 3.3 1.4 3.4 0.2 0.3 2.5 0.5 7.5 0.7 4 0.1 9.9 0.4 13.1 0.5 3.3 0.1 8.8 0.4 12.2 0.5 3.4 0.2 8.5 0.4 11.2 0.5 4.3 0.2 4.9 0.2 4.9-0.2 0-0.2-0.7-1-1.7-1.8-0.9-0.7-2.6-2-3.7-2.8-1.1-0.8-3.5-2.3-5.3-3.4-1.7-1-4.7-2.6-6.6-3.4-1.9-0.8-5-2.1-7-2.8-2-0.6-5.1-1.6-6.9-2-1.8-0.4-4.3-0.9-5.4-1.1-1.2-0.2-2.9-0.4-3.8-0.6-0.9-0.1-3.9-0.2-6.7-0.3-2.7-0.1-5.4-0.1-6 0zm111.9 31.2c-0.3 0.1-0.4 0.4-0.3 0.6 0.1 0.2 1.5 1.2 3.1 2.3 1.6 1.1 4.1 2.5 5.4 3.2 1.3 0.6 3.2 1.4 4.2 1.7 1 0.4 2.2 0.6 2.8 0.5h1.1c0.2-5.5 0.1-6.3-0.2-6.6-0.2-0.1-1.2-0.5-2.2-0.8-1.1-0.2-3.2-0.6-4.9-0.8-1.6-0.2-4.2-0.4-5.8-0.4-1.6 0-3 0.1-3.2 0.3zm-167.6 4.9c0.7 0 2.3 0.2 3.3 0.4 1.1 0.3 2.7 0.8 3.6 1.2 0.9 0.4 2.4 1.3 3.3 2 0.9 0.6 2.1 1.9 2.7 2.6 0.6 0.8 1.5 2.1 1.8 2.9 0.4 0.8 1 2.3 1.3 3.4 0.3 1.1 0.5 2.8 0.5 4 0 1.2-0.2 2.9-0.5 4.2-0.3 1.2-1 2.9-1.4 3.8-0.5 0.9-1.8 2.5-2.9 3.7-1.7 1.6-2.5 2.2-4.4 3.1-1.2 0.6-3.3 1.3-4.6 1.6-1.9 0.4-2.6 0.4-4.6 0.1-1.2-0.2-3.1-0.6-4-1-1-0.4-2.4-1.1-3.1-1.6-0.8-0.5-2.2-1.7-3.1-2.7-1.1-1.2-2.1-2.6-2.7-3.8-0.4-1-1-2.6-1.3-3.5-0.2-0.9-0.4-2.6-0.4-3.8 0-1.2 0.2-2.9 0.5-3.9 0.2-1 0.8-2.5 1.2-3.4 0.4-0.9 1.3-2.3 2-3.2 0.8-0.8 1.9-2 2.6-2.5 0.6-0.5 1.8-1.3 2.7-1.7 0.8-0.5 2.1-1 2.9-1.2 0.9-0.2 1.9-0.5 2.3-0.5 0.5-0.1 1.5-0.2 2.3-0.2zm152.9 0.1c1.3 0.1 3.2 0.4 4.2 0.7 1.1 0.3 2.6 1 3.4 1.4 0.8 0.5 2.3 1.6 3.2 2.5 1 0.9 2.2 2.4 2.8 3.4 0.6 1 1.3 2.6 1.6 3.6 0.5 1.5 0.6 2.6 0.6 4.9 0 2.5-0.1 3.3-0.7 5.1-0.4 1.1-1.2 2.8-1.8 3.8-0.6 0.9-1.8 2.4-2.7 3.2-1.1 1.1-2.4 1.9-3.9 2.6-1.2 0.6-2.7 1.2-3.4 1.4-0.7 0.1-1.9 0.3-2.7 0.4-0.8 0.1-2.4 0.1-3.4-0.1-1-0.2-2.6-0.6-3.4-0.8-0.8-0.3-2.1-1-2.9-1.5-0.8-0.4-2.3-1.6-3.3-2.6-1-1-2.2-2.5-2.6-3.4-0.5-0.9-1.2-2.6-1.5-3.8-0.3-1.3-0.6-2.9-0.6-4.3 0-1.2 0.2-2.8 0.3-3.6 0.2-0.9 0.9-2.5 1.4-3.8 0.8-1.7 1.6-2.7 3.1-4.2 1.5-1.5 2.4-2.2 4.2-3.1 1.3-0.6 3.1-1.3 4.1-1.5 1.1-0.3 2.6-0.4 4-0.3zm-156.2 4.6c-0.6 0.2-1.8 0.7-2.6 1.1-0.8 0.4-2.1 1.4-2.9 2.1-0.7 0.8-1.7 2.2-2.2 3.2-0.5 0.9-1 2.6-1.2 3.6-0.2 1.5-0.2 2.4 0 3.8 0.2 1 0.7 2.7 1.2 3.6 0.5 1.1 1.5 2.4 2.5 3.3 1 1 2.3 1.9 3.5 2.4 1.3 0.6 2.4 0.9 3.9 1 1.2 0.1 2.7 0.1 3.6-0.1 0.8-0.2 2.2-0.7 3.1-1.1 0.9-0.5 2.2-1.4 3.1-2.4 1-0.9 1.9-2.3 2.5-3.4 0.8-1.7 0.9-2.2 1-4.6 0.1-2.3 0-3.1-0.5-4.5-0.3-1-1-2.4-1.5-3.1-0.5-0.8-1.5-1.9-2.3-2.5-0.8-0.6-2.2-1.5-3.1-1.9-1.4-0.6-2.1-0.8-4.4-0.8-1.7-0.1-3.1 0-3.7 0.3zm151.6 0.1c-0.8 0.3-2.1 1-2.9 1.6-0.8 0.6-2.1 1.7-2.7 2.5-0.7 0.9-1.6 2.3-1.9 3.3-0.6 1.4-0.7 2.1-0.7 4.5 0 2.8 0 3 1.1 5.1 0.6 1.3 1.5 2.6 2.4 3.5 0.7 0.8 2 1.7 2.8 2.1 0.8 0.4 2.1 0.9 3 1.1 0.8 0.2 2.2 0.4 3 0.4 0.8 0 2-0.1 2.7-0.3 0.7-0.1 1.9-0.6 2.7-1 0.8-0.4 2.2-1.4 3.1-2.3 1.1-1.1 2-2.3 2.5-3.4 0.5-1 1-2.6 1.1-3.7 0.2-1.3 0.2-2.4-0.1-3.8-0.1-1.1-0.7-2.5-1.2-3.6-0.5-0.9-1.6-2.3-2.4-3.1-0.9-0.8-2.3-1.8-3.4-2.4-1.7-0.8-2.2-0.9-4.7-0.9-2.3-0.1-3.1 0-4.4 0.4z"/>
		<path id="Calque 2" fill-rule="evenodd" class="s2" d="m98.6 0.1c2.8 0 7 0.2 9.2 0.5 2.2 0.2 4.8 0.5 5.7 0.6 0.9 0.1 2.2 0.3 2.8 0.4 0.7 0.1 3 0.6 5 1 2.1 0.4 5.2 1.1 6.9 1.6 1.7 0.4 4.7 1.3 6.7 1.9 1.9 0.6 5.4 1.9 7.7 2.8 2.3 0.9 5.9 2.4 8 3.4 2 1 5.3 2.6 7.1 3.7 1.9 1 5.1 2.9 11 6.8l4.1 0.3c2.2 0.2 5.5 0.5 7.4 0.7 1.9 0.3 4.8 0.6 6.5 0.8 1.7 0.3 3.8 0.6 4.7 0.7 0.9 0.2 2.3 0.4 3.1 0.6 0.9 0.1 2.2 0.3 3 0.5 0.8 0.1 1.9 0.3 2.5 0.4 0.5 0.1 1.4 0.3 2 0.4 0.6 0.1 1.8 0.4 2.7 0.6 0.9 0.2 3.3 0.7 5.3 1.2 2 0.5 4.8 1.3 6.3 1.8 1.5 0.4 4.2 1.3 6 1.9 1.8 0.6 4.5 1.6 6.1 2.3 1.5 0.7 3.2 1.5 3.6 1.8 0.8 0.5 0.8 0.7 0.9 2.3 0 1 0.3 4.3 0.5 7.3 0.2 3.1 0.4 6.7 0.4 8 0 1.4-0.2 3.2-0.5 4.1-0.2 0.9-0.7 2.1-1 2.8-0.3 0.7-1.1 1.6-1.7 2.2-0.5 0.5-1.7 1.2-2.5 1.6-1.5 0.6-1.6 0.6-6.1 0.5-2.5-0.1-4.7-0.3-4.7-0.4-0.1 0 0-0.6 0.3-1.2 0.3-0.6 0.7-1.9 0.9-3 0.2-1 0.4-2.8 0.4-4 0-1.1-0.2-2.8-0.4-3.8-0.2-1-0.6-2.4-0.8-3.1-0.3-0.8-0.8-1.9-1.2-2.6-0.4-0.7-1-1.7-1.4-2.3-0.4-0.6-1.6-1.9-2.7-3-1.3-1.1-2.9-2.3-4.2-3-1.2-0.6-3-1.4-4.1-1.7-1.5-0.6-2.4-0.7-5.5-0.7-2.3 0-4.1 0.2-4.9 0.4-0.6 0.2-2 0.7-2.9 1.1-1 0.4-2.5 1.2-3.4 1.7-0.9 0.6-2.3 1.7-3 2.3-0.7 0.7-1.8 2-2.4 2.9-0.7 0.9-1.5 2.2-1.9 3-0.3 0.7-0.9 2.2-1.3 3.4-0.5 1.6-0.6 2.6-0.6 5.4 0 2.3 0.2 3.8 0.5 5 0.2 0.9 0.5 1.8 0.5 2 0 0.4-6.4 0.4-56.7 0.4-31.2 0-56.8 0-56.9-0.1-0.1-0.1 0-0.9 0.3-1.8 0.4-1.2 0.5-2.5 0.5-5.5 0-3.4-0.1-4.2-0.6-5.8-0.4-1.1-1-2.6-1.4-3.4-0.4-0.8-1.5-2.4-2.3-3.4-0.8-1-2.2-2.5-3.1-3.2-0.8-0.6-2.3-1.6-3.3-2.2-1-0.5-2.7-1.2-3.8-1.5-1.7-0.6-2.6-0.7-5.7-0.7-3.2 0-3.9 0.1-5.9 0.8-1.3 0.4-3.2 1.2-4.2 1.8-1.1 0.6-2.6 1.7-3.4 2.4-0.8 0.7-2 2-2.7 3-0.7 1-1.6 2.2-1.9 2.8-0.3 0.6-0.8 2-1.2 3-0.4 1.1-0.8 3-1 4.3-0.2 1.9-0.2 2.9 0 4.4 0.2 1 0.2 2 0.1 2.1-0.1 0.1-3.4-0.1-7.4-0.4-3.9-0.3-8.7-0.6-10.7-0.8-3.3-0.2-3.5-0.3-4.1-1-0.3-0.4-1-1.8-1.5-3.2-0.5-1.3-1.1-2.9-1.2-3.5-0.2-0.6-0.4-1.7-0.6-2.6-0.1-0.8-0.3-2.2-0.4-3.2-0.1-1-0.1-2.9 0-4.2 0.2-2.1 0.3-2.5 0.9-3 0.4-0.3 1.2-1 1.9-1.6 1-0.9 1.2-1.3 1.5-3.5l3-0.2c1.6-0.1 3.6-0.3 4.3-0.4 0.8-0.2 1.7-0.5 2.2-0.6 0.4-0.2 1.4-0.6 2.2-1 0.7-0.4 1.8-1 2.3-1.5q1-0.8 1-1.5c0-0.3-0.1-1-0.4-1.4-0.2-0.5-0.7-1.1-1.1-1.4-0.4-0.3-1.4-0.7-2.2-1-1.3-0.3-2.2-0.4-5.2-0.3-2 0.1-4.1 0.2-5.5 0.4l0.1-1.9c0-1.1 0.1-2.1 0.3-2.3q0.2-0.5 2.2-0.7c1.1-0.1 2.9-0.3 4.1-0.4 1.2-0.2 5.1-0.6 8.6-1 3.5-0.4 7-0.8 7.9-0.8 1.4-0.2 2.5-0.6 6.5-2.7 2.7-1.3 5.8-2.8 6.8-3.3 1-0.5 2.7-1.2 3.7-1.7 1-0.4 1.9-0.8 2-0.8 0.1 0 1.5-0.5 3.2-1.2 1.6-0.7 5.1-1.9 7.7-2.7 2.6-0.8 6.3-1.8 8.2-2.3 1.8-0.4 4.3-1 5.4-1.2 1.1-0.2 3.2-0.6 4.7-0.8 1.5-0.3 3.6-0.6 4.6-0.7 1.1-0.2 3.4-0.4 5.3-0.6 1.8-0.1 4.2-0.3 5.3-0.4 1 0 4.2 0 7 0.1zm-52.4 40.4c0.7 0 2.3 0.2 3.3 0.4 1.1 0.3 2.7 0.8 3.6 1.2 0.9 0.4 2.4 1.3 3.3 2 0.9 0.6 2.1 1.9 2.7 2.6 0.6 0.8 1.5 2.1 1.8 2.9 0.4 0.8 1 2.3 1.3 3.4 0.3 1.1 0.5 2.8 0.5 4 0 1.2-0.2 2.9-0.5 4.2-0.3 1.2-1 2.9-1.4 3.8-0.5 0.9-1.8 2.5-2.9 3.7-1.7 1.6-2.5 2.2-4.4 3.1-1.2 0.6-3.3 1.3-4.6 1.6-1.9 0.4-2.6 0.4-4.6 0.1-1.2-0.2-3.1-0.6-4-1-1-0.4-2.4-1.1-3.1-1.6-0.8-0.5-2.2-1.7-3.1-2.7-1.1-1.2-2.1-2.6-2.7-3.8-0.4-1-1-2.6-1.3-3.5-0.2-0.9-0.4-2.6-0.4-3.8 0-1.2 0.2-2.9 0.5-3.9 0.2-1 0.8-2.5 1.2-3.4 0.4-0.9 1.3-2.3 2-3.2 0.8-0.8 1.9-2 2.6-2.5 0.6-0.5 1.8-1.3 2.7-1.7 0.8-0.5 2.1-1 2.9-1.2 0.9-0.2 1.9-0.5 2.3-0.5 0.5-0.1 1.5-0.2 2.3-0.2zm152.9 0.1c1.3 0.1 3.2 0.4 4.2 0.7 1.1 0.3 2.6 1 3.4 1.4 0.8 0.5 2.3 1.6 3.2 2.5 1 0.9 2.2 2.4 2.8 3.4 0.6 1 1.3 2.6 1.6 3.6 0.5 1.5 0.6 2.6 0.6 4.9 0 2.5-0.1 3.3-0.7 5.1-0.4 1.1-1.2 2.8-1.8 3.8-0.6 0.9-1.8 2.4-2.7 3.2-1.1 1.1-2.4 1.9-3.9 2.6-1.2 0.6-2.7 1.2-3.4 1.4-0.7 0.1-1.9 0.3-2.7 0.4-0.8 0.1-2.4 0.1-3.4-0.1-1-0.2-2.6-0.6-3.4-0.8-0.8-0.3-2.1-1-2.9-1.5-0.8-0.4-2.3-1.6-3.3-2.6-1-1-2.2-2.5-2.6-3.4-0.5-0.9-1.2-2.6-1.5-3.8-0.3-1.3-0.6-2.9-0.6-4.3 0-1.2 0.2-2.8 0.3-3.6 0.2-0.9 0.9-2.5 1.4-3.8 0.8-1.7 1.6-2.7 3.1-4.2 1.5-1.5 2.4-2.2 4.2-3.1 1.3-0.6 3.1-1.3 4.1-1.5 1.1-0.3 2.6-0.4 4-0.3z"/>
		<path id="Calque 3" fill-rule="evenodd" class="s1" d="m93 4.3c1.3-0.1 2.1 0 2.3 0.2 0.2 0.2 0.4 0.9 0.5 1.5 0.2 0.6 0.5 2.4 0.8 4 0.3 1.7 0.6 3.5 0.8 4.1 0.1 0.6 0.4 2.2 0.7 3.6 0.4 2.2 0.5 2.5 0.1 2.8-0.3 0.1-1.9 0.2-4.2 0.1-2.1-0.1-9.5-0.3-16.4-0.4-6.9-0.2-16.5-0.4-21.2-0.4-4.8-0.1-9-0.3-9.3-0.3-0.3-0.1-0.6-0.3-0.6-0.5 0-0.2 0.4-0.7 0.9-1.2 0.5-0.4 1.8-1.5 3-2.4 1.2-0.8 3.2-2.1 4.5-2.8 1.3-0.6 3.6-1.7 5.1-2.4 1.6-0.6 4.4-1.6 6.3-2.2 1.8-0.6 4.9-1.3 6.7-1.7 1.9-0.4 4.3-0.8 5.3-1 1-0.1 3.2-0.4 4.9-0.6 1.6-0.1 4-0.3 5.4-0.3 1.3-0.1 3.3-0.1 4.4-0.1zm14.9 0.1c2.8 0.1 5.8 0.2 6.7 0.3 0.9 0.2 2.6 0.4 3.8 0.6 1.1 0.2 3.6 0.7 5.4 1.1 1.8 0.4 4.9 1.4 6.9 2 2 0.7 5.1 2 7 2.8 1.9 0.8 4.9 2.4 6.6 3.4 1.8 1.1 4.2 2.6 5.3 3.4 1.1 0.8 2.8 2.1 3.7 2.8 1 0.8 1.7 1.6 1.7 1.8 0 0.4-0.6 0.4-4.9 0.2-2.7-0.1-7.8-0.3-11.2-0.5-3.4-0.1-8.9-0.4-12.2-0.5-3.2-0.1-9.1-0.4-13.1-0.5-5-0.2-7.3-0.4-7.5-0.7-0.2-0.1-0.8-1.7-1.4-3.4-0.6-1.7-1.7-5-2.4-7.4-0.8-2.3-1.4-4.5-1.4-4.8 0-0.4 0.2-0.5 1-0.6 0.6-0.1 3.3-0.1 6 0zm109.1 30.9c1.6 0 4.2 0.2 5.8 0.4 1.7 0.2 3.8 0.6 4.9 0.8 1 0.3 2 0.7 2.2 0.8 0.3 0.3 0.4 1.1 0.2 6.6h-1.1c-0.6 0.1-1.8-0.1-2.8-0.5-1-0.3-2.9-1.1-4.2-1.7-1.3-0.7-3.8-2.1-5.4-3.2-1.6-1.1-3-2.1-3.1-2.3-0.1-0.2 0-0.5 0.3-0.6 0.2-0.2 1.6-0.3 3.2-0.3z"/>
		<path id="Calque 3 copy 3" fill-rule="evenodd" class="s1" d="m195.8 48.2c-0.4 0.2-1.3 0.6-1.9 0.9-0.6 0.3-1.6 1-2.2 1.6-0.5 0.6-1.3 1.6-1.7 2.4-0.3 0.7-0.7 2-0.9 2.7-0.1 1.2-0.1 1.8 0 2.9 0.2 0.8 0.6 2 1 2.8 0.4 0.8 1.1 1.7 1.8 2.5 0.8 0.7 1.8 1.4 2.7 1.8 1 0.4 1.8 0.7 2.9 0.7 1 0.1 2.1 0.1 2.8-0.1 0.6-0.1 1.6-0.5 2.3-0.8 0.7-0.3 1.7-1.1 2.4-1.8 0.7-0.7 1.4-1.7 1.9-2.6 0.6-1.3 0.7-1.7 0.7-3.5 0.1-1.7 0-2.3-0.3-3.4-0.3-0.7-0.8-1.8-1.2-2.4-0.3-0.5-1.1-1.4-1.8-1.8-0.6-0.5-1.6-1.2-2.3-1.5-1-0.4-1.5-0.5-3.3-0.6-1.3 0-2.3 0.1-2.9 0.2z"/>
		<path id="Calque 3 copy 4" fill-rule="evenodd" class="s1" d="m43.8 48.2c-0.4 0.2-1.3 0.6-1.9 0.9-0.6 0.3-1.6 1-2.2 1.6-0.5 0.6-1.3 1.6-1.7 2.4-0.3 0.7-0.7 2-0.9 2.7-0.1 1.2-0.1 1.8 0 2.9 0.2 0.8 0.6 2 1 2.8 0.4 0.8 1.1 1.7 1.8 2.5 0.8 0.7 1.8 1.4 2.7 1.8 1 0.4 1.8 0.7 2.9 0.7 1 0.1 2.1 0.1 2.8-0.1 0.6-0.1 1.6-0.5 2.3-0.8 0.7-0.3 1.7-1.1 2.4-1.8 0.7-0.7 1.4-1.7 1.9-2.6 0.6-1.3 0.7-1.7 0.7-3.5 0.1-1.7 0-2.3-0.3-3.4-0.3-0.7-0.8-1.8-1.2-2.4-0.3-0.5-1.1-1.4-1.8-1.8-0.6-0.5-1.6-1.2-2.3-1.5-1-0.4-1.5-0.5-3.3-0.6-1.3 0-2.3 0.1-2.9 0.2z"/>
	</g>
</svg>