<svg xmlns="http://www.w3.org/2000/svg" width="499.88" height="239.856" viewBox="0 0 4412 2117">
  <defs>
    <style>
      .cls-1 {
        stroke: #fff;
        stroke-linecap: round;
        stroke-linejoin: round;
        stroke-width: 0;
        stroke-dasharray: 0.001 0;
        fill-rule: evenodd;
      }
    </style>
  </defs>
  <path class="cls-1" d="M1900,0c359.21-3.12,658.37,43.545,902,152,116.3,51.773,218.02,123.473,316,194,65.72,47.3,246.21,163.372,269,238-14.19,8.544-122.26-2.529-150-6l-324-16-117-2-318-2-182,3-177,5-574,32-434,22c-19.01-31.69-13.62-91.7-20-136-14.01-97.383-46.53-314.934-8-401,55.07-13.067,113.01-26.979,174-38L1597,8ZM893,114l53,19q2,133.986,4,268c-20.829,9.287-52.808,3.934-82,0-93.887-12.653-203.769-12.512-239,50-10.347,18.359-19.394,47.524-9,73,13.541,33.189,48.9,49.3,59,85l-3,3-409-3,73-98C443.737,375.82,561.629,266.144,715,180,769.021,149.658,832.7,141.1,893,114Zm543,694c107.51-1.913,208.34,19.271,294,44,257.3,74.283,468.47,174.57,651,321,72.5,58.17,178.31,158.3,202,261l-3,3h-3q-71.49-60-143-120c-179.72,13.24-398.28,68.59-577,17-109.65-31.65-181.63-90.63-258-154-35.12-29.14-150.76-133.49-136-198q3.495-3.5,7-7c104.4,0.368,253.07,33.6,338-8l-6-18L1420,821v-8l4-1ZM207,879c241.133-2.344,527.167,28.459,689,108q-10,21-20,42-123.488-33.5-247-67c-134.138-38.716-291.616-62.349-445-74l2-2Zm883,13c233.95-1.168,254.05,244.44,294,439,15.74,76.64,51.3,148.1,33,240q-47.49-157.98-95-316c-15.46-6.49-45.42,22.8-53,29-52.72,43.09-78.69,115.5-100,190-65.16,227.78-15.64,544.65,152,626-24.66,38.16-91.07-16.27-114-35-82.8-67.64-119.71-180.65-141-310-31.04-188.57,22.05-370.03,100-472l90-96,35-32-6-36c-18.57-71.07-58.78-133.348-127-154-94.3-28.546-141.56,49.93-165,111-67.467,175.77-43.2,457.42-9,653q14,102.495,28,205c-7.35,15.07-85.486-13.31-104-19l-308-94v-4c0.333-.33.667-0.67,1-1,102.759-7.14,175.46,25.08,256,49,22.2,6.6,58.875,22.89,86,17,14.178-18.2,4.013-74.19,2-103l-27-258c-29.587-202.01-14.972-432.36,77-550C1021.2,937.486,1055.43,917.387,1090,892Zm3125,29c116.4-.018,211.96,173.9,193,304-61.02-.38-267.56,2.09-296,25-25.29,20.37-32.25,75.3-51,102h-1c-0.67-1-1.33-2-2-3C4055.52,1129.79,4082.53,1011.87,4215,921ZM3082,973l390,3,101,1c80.35,9.96,160.71,7.517,231,23,120.87,26.63,204.16,72.28,108,188-40.55,48.79-157.42,69.55-233,85-86.53,17.69-182.52,18.88-280,31l-125,3q-82.485.495-165,1l-94-3c-85.78-10.92-166.33-16.82-237-41-80.11-27.41-148.81-67.49-180-144-3.76-9.23-25.64-77.94-12-91q41.49-8,83-16c90.81-18.281,189.01-22.259,289-35ZM221,1104c92.383,57.51,85.856,202.85,109,330,5.819,31.97,6.521,74.72,23,98q169.483,75.495,339,151c-1.394,5.06.361,2.39-3,5-53.148,18.72-151.16-15.68-191-28-31.233-9.65-181.309-56.68-194-72Q262.5,1346.02,221,1104ZM75,1183q17,2.505,34,5c33,65.9-8.675,131.33-26,187-8.52,27.38-11.511,57.59-16,90-19.768,142.71,33.322,258.44,62,360-0.667.67-1.333,1.33-2,2-40.868-1.69-62.131-67.9-77-98C-26.691,1573.77-8.093,1310.13,75,1183Zm4139,350q53.49,8.505,107,17c3.98,19.14,11.62,41.15,5,64-31.05,107.22-237.86,142.42-355,171-144.19,35.18-301.49,50.19-463,73q-115.485,7.995-231,16-96.495,3.495-193,7-69.495.495-139,1-75.495-1.005-151-2c-113.32-14.39-227.81-9.71-333-26-155.03-24.01-552.48-20.61-449-221,567.79,0.59,1163.9,9.08,1669-59Q3947.475,1553.5,4214,1533ZM557,1792q9,4.005,18,8-12.5.495-25,1Z"/>
</svg>
